<svg width="123" height="193" viewBox="0 0 123 193" fill="none" xmlns="http://www.w3.org/2000/svg">
<path d="M66.6305 77.1168C72.68 64.1071 71.9599 46.0937 61.5891 35.2285C104.512 35.5144 59.5726 183.339 59.5726 183.339H57.268C42.8642 149.599 50.7863 109.998 66.6305 77.1168Z" fill="#00A138"/>
<path d="M61.5888 35.2285C61.5888 35.2285 61.7328 35.2285 61.5888 35.2285C71.9595 46.0937 72.6797 64.1071 66.7741 77.1168C50.93 109.998 43.0079 149.599 57.5557 183.482H55.2511C55.1071 183.482 18.3774 35.2285 61.5888 35.2285Z" fill="#6FD189"/>
<path d="M111.282 85.2659C112.291 85.6948 113.299 86.1236 114.307 86.8385C138.65 102.85 100.624 137.733 68.2151 126.439C68.2151 126.439 68.2151 126.296 68.3591 126.153C80.0262 125.296 91.2611 121.579 100.047 113.287C107.97 106.71 113.155 95.7022 111.282 85.2659Z" fill="#00A138"/>
<path d="M111.282 85.2658C113.154 95.7021 107.825 106.71 100.191 113.144C91.4048 121.436 80.1698 125.153 68.5027 126.01C70.3752 121.579 90.6846 77.1169 111.282 85.2658Z" fill="#6FD189"/>
<path d="M45.8891 74.6866C46.4652 75.6874 46.7533 76.4022 46.7533 76.4022V82.6926C46.7533 82.6926 -3.80399 66.6807 0.229072 50.9547C17.3696 49.811 34.366 62.1058 45.8891 74.6866Z" fill="#6FD189"/>
<path d="M0.373474 50.9546C0.805588 49.2391 1.81385 47.5235 3.68634 45.9509C20.5388 30.9398 41.4242 66.3947 45.8894 74.6866C34.3664 62.1058 17.3699 49.8109 0.373474 50.9546Z" fill="#00A138"/>
<path d="M12.6167 1.48929C14.3452 0.631509 16.3617 0.631509 18.8103 1.63225C35.8068 8.20858 14.2011 47.3806 14.2011 47.3806C14.0571 47.0947 13.769 46.8087 13.625 46.5228C17.658 32.0835 22.2672 13.2123 12.6167 1.48929Z" fill="#00A138"/>
<path d="M12.616 1.48926C22.2666 13.2123 17.8014 31.9405 13.4803 46.3798C6.27837 35.9435 3.10954 6.20705 12.616 1.48926Z" fill="#6FD189"/>
<path d="M94.8619 144.453H22.2668C22.2668 144.453 21.2585 192.917 58.5643 192.917C95.8701 192.917 94.8619 144.453 94.8619 144.453Z" fill="#FFCC46"/>
<path d="M87.9482 144.453H95.0061C95.0061 144.453 96.0143 192.917 58.7086 192.917C57.5563 192.917 56.404 192.917 55.2516 192.774C88.9565 189.772 87.9482 144.453 87.9482 144.453Z" fill="#FFA42F"/>
<path d="M52.9473 43.5206C52.9473 44.2354 53.5235 44.8072 54.2437 44.8072C54.9639 44.8072 55.54 44.2354 55.54 43.5206C55.54 42.8057 54.9639 42.2339 54.2437 42.2339C53.5235 42.2339 52.9473 42.8057 52.9473 43.5206Z" fill="#00A138"/>
<path d="M42.1444 79.6904C42.1444 80.4052 42.7206 81.12 43.5848 81.12C44.305 81.12 45.0252 80.5482 45.0252 79.6904C45.0252 78.9756 44.449 78.2607 43.5848 78.2607C42.7206 78.2607 42.1444 78.9756 42.1444 79.6904Z" fill="#00A138"/>
<path d="M20.8264 60.3904C20.8264 60.8192 21.1145 61.1052 21.5466 61.1052C21.9787 61.1052 22.2668 60.8192 22.2668 60.3904C22.2668 59.9615 21.9787 59.6755 21.5466 59.6755C21.2585 59.6755 20.8264 59.9615 20.8264 60.3904Z" fill="#00A138"/>
<path d="M10.7438 11.6395C10.7438 12.0684 11.1759 12.4973 11.6081 12.4973C12.0402 12.4973 12.4723 12.0684 12.4723 11.6395C12.4723 11.2106 12.0402 10.7817 11.6081 10.7817C11.1759 10.7817 10.7438 11.0677 10.7438 11.6395Z" fill="#00A138"/>
<path d="M64.6141 65.823C64.6141 66.3949 65.0462 66.8238 65.6223 66.8238C66.1985 66.8238 66.6306 66.3949 66.6306 65.823C66.6306 65.2512 66.1985 64.8223 65.6223 64.8223C65.0462 64.8223 64.6141 65.2512 64.6141 65.823Z" fill="#00A138"/>
<path d="M50.3541 103.565C50.3541 104.28 50.9303 104.852 51.6505 104.852C52.3707 104.852 52.9468 104.28 52.9468 103.565C52.9468 102.85 52.3707 102.279 51.6505 102.279C50.9303 102.279 50.3541 102.85 50.3541 103.565Z" fill="#00A138"/>
<path d="M46.8971 127.297C46.8971 128.012 47.1852 128.584 47.6173 128.584C48.0494 128.584 48.3375 128.012 48.3375 127.297C48.3375 126.582 48.0494 126.01 47.6173 126.01C47.1852 126.01 46.8971 126.582 46.8971 127.297Z" fill="#00A138"/>
<path d="M5.41486 59.1036C5.41486 59.3895 5.70293 59.6754 5.99101 59.6754C6.27908 59.6754 6.56716 59.3895 6.56716 59.1036C6.56716 58.8177 6.27908 58.5317 5.99101 58.5317C5.70293 58.5317 5.41486 58.8177 5.41486 59.1036Z" fill="#00A138"/>
<path d="M106.673 89.8409C107.23 89.8409 107.681 89.3928 107.681 88.8401C107.681 88.2874 107.23 87.8394 106.673 87.8394C106.116 87.8394 105.665 88.2874 105.665 88.8401C105.665 89.3928 106.116 89.8409 106.673 89.8409Z" fill="#00A138"/>
<path d="M92.5576 104.852C92.5576 105.567 93.1338 105.995 93.7099 105.995C94.2861 105.995 94.8622 105.424 94.8622 104.852C94.8622 104.137 94.2861 103.708 93.7099 103.708C93.1338 103.708 92.5576 104.137 92.5576 104.852Z" fill="#00A138"/>
<path d="M75.417 116.718C75.417 117.29 75.8491 117.719 76.4253 117.719C77.0014 117.719 77.4335 117.29 77.4335 116.718C77.4335 116.146 77.0014 115.717 76.4253 115.717C75.8491 115.717 75.417 116.146 75.417 116.718Z" fill="#00A138"/>
<path d="M102.928 108.283C102.928 109.57 104.224 110.57 105.809 110.57C107.393 110.57 108.689 109.57 108.689 108.283C108.689 106.996 107.393 105.996 105.809 105.996C104.224 105.996 102.928 106.996 102.928 108.283Z" fill="#00A138"/>
</svg>
