<svg width="250" height="205" viewBox="0 0 250 205" fill="none" xmlns="http://www.w3.org/2000/svg">
<path d="M58.3 34.8628V0.862793H191.2V34.8628H177.8V68.8628H198.4V102.863V136.863H200.5V170.863H207.7V204.863H74.8V170.863H67.6V136.863H65.6V102.863V68.8628H45V34.8628H58.3Z" fill="#FBFBFB"/>
<path d="M58.3 34.8628H118.5L58.3 28.3628V34.8628Z" fill="#E6E6E6"/>
<path d="M191.2 25.1627H120L191.2 22.7627V25.1627Z" fill="#E6E6E6"/>
<path d="M177.8 34.8628H146.9L177.8 38.3628V34.8628Z" fill="#E6E6E6"/>
<path d="M58.3 5.86279H164.9L58.3 8.26279V5.86279Z" fill="#E6E6E6"/>
<path d="M191.2 14.8627H77.5L191.2 12.2627V14.8627Z" fill="#E6E6E6"/>
<path d="M45 41.7627H144.8L45 45.4627V41.7627Z" fill="#E6E6E6"/>
<path d="M65.6 68.8628H198.4L65.6 75.2628V68.8628Z" fill="#E6E6E6"/>
<path d="M177.8 61.2628H92.3L177.8 58.6628V61.2628Z" fill="#E6E6E6"/>
<path d="M45 54.1628L82.8 56.7628H45V54.1628Z" fill="#E6E6E6"/>
<path d="M198.4 102.863L65.6 104.263L198.4 107.663V102.863Z" fill="#E6E6E6"/>
<path d="M198.4 79.1628H113.8L198.4 82.0628V79.1628Z" fill="#E6E6E6"/>
<path d="M65.6 87.8628L164.9 90.7628L65.6 92.0628V87.8628Z" fill="#E6E6E6"/>
<path d="M65.6 98.1628H118.5L65.6 100.763V98.1628Z" fill="#E6E6E6"/>
<path d="M65.6 136.863H195.6L65.6 128.763V136.863Z" fill="#E6E6E6"/>
<path d="M198.4 117.163L144.8 118.963L198.4 120.563V117.163Z" fill="#E6E6E6"/>
<path d="M65.6 111.663L100 114.563H65.6V111.663Z" fill="#E6E6E6"/>
<path d="M200.5 144.763L160.2 146.363H200.5V144.763Z" fill="#E6E6E6"/>
<path d="M200.5 157.263L70 162.863H200.5V157.263Z" fill="#E6E6E6"/>
<path d="M207.7 170.863H79.7L207.7 177.163V170.863Z" fill="#E6E6E6"/>
<path d="M74.8 178.063H116.2L74.8 182.163V178.063Z" fill="#E6E6E6"/>
<path d="M207.7 189.263L121.9 193.163H207.7V189.263Z" fill="#E6E6E6"/>
<path d="M207.7 204.863L74.8 198.163V204.863H207.7Z" fill="#E6E6E6"/>
<path d="M229.1 193.163C234.7 193.163 239.3 191.663 242.8 188.663C249.5 182.863 249.2 173.563 249.2 173.163C249.2 172.263 248.4 171.463 247.4 171.463H228C227 171.463 226.2 172.263 226.2 173.263C226.2 174.263 227 175.063 228 175.063H245.5C245.3 177.663 244.3 182.663 240.4 186.063C236.5 189.463 230.5 190.463 222.6 189.063C221.6 188.863 220.7 189.563 220.5 190.463C220.3 191.463 221 192.363 221.9 192.563C224.5 192.863 226.9 193.163 229.1 193.163Z" fill="#E8462C"/>
<path d="M234.1 168.063H175C175 168.063 177.4 204.463 204.5 204.963C231.7 205.363 234.1 168.063 234.1 168.063Z" fill="#FF5B41"/>
<path d="M201 198.263C220.9 198.563 227.5 178.763 229.6 168.063H234.1C234.1 168.063 231.7 205.363 204.6 204.963C190.9 204.763 183.5 195.363 179.6 186.163C183.9 192.663 190.7 198.063 201 198.263Z" fill="#E8462C"/>
<path d="M137.4 138.763V115.863H27C48.1 123.563 66 136.663 89.5 141.463C106.1 144.763 121.9 142.563 137.4 138.763Z" fill="#7860DC"/>
<path d="M89.5 141.463C66 136.663 48.1 123.563 27 115.863H22.4V145.363H137.5V138.763C121.9 142.563 106.1 144.763 89.5 141.463Z" fill="#6A51D4"/>
<path d="M58.1 190.563C79.4 197.263 101.5 198.263 123.2 195.663V174.863H8.20001V175.563C25.5 175.163 42 185.763 58.1 190.563Z" fill="#FF5B41"/>
<path d="M58.1 190.563C42 185.763 25.5 175.163 8.20001 175.563V204.363H123.3V195.663C101.5 198.263 79.5 197.263 58.1 190.563Z" fill="#F23F22"/>
<path d="M115.1 168.563V145.363H8.5C21.8 148.863 34.4 157.863 47.7 162.463C69.7 169.063 92.6 170.963 115.1 168.563Z" fill="#FFA42F"/>
<path d="M47.7 162.463C34.4 157.863 21.8 148.863 8.5 145.363H0V174.863H115.1V168.563C92.6 170.963 69.7 169.063 47.7 162.463Z" fill="#FA9514"/>
<path d="M36.5 137.563C32.7 137.563 29.5 134.463 29.5 130.563C29.5 126.763 32.6 123.563 36.5 123.563C40.4 123.563 43.5 126.663 43.5 130.563C43.4 134.463 40.3 137.563 36.5 137.563Z" fill="white"/>
<path d="M14.2 167.063C10.4 167.063 7.20001 163.963 7.20001 160.063C7.20001 156.163 10.3 153.063 14.2 153.063C18.1 153.063 21.2 156.163 21.2 160.063C21.2 163.963 18 167.063 14.2 167.063Z" fill="white"/>
<path d="M22.3 196.563C18.5 196.563 15.3 193.463 15.3 189.563C15.3 185.663 18.4 182.563 22.3 182.563C26.1 182.563 29.3 185.663 29.3 189.563C29.3 193.463 26.2 196.563 22.3 196.563Z" fill="white"/>
</svg>
