<svg width="132" height="219" viewBox="0 0 132 219" fill="none" xmlns="http://www.w3.org/2000/svg">
<path d="M74.711 24.6026C69.579 16.1657 64.457 12.5823 56.3158 9.45134C47.3361 6.00036 35.3906 9.82827 27.958 16.2573C24.3311 19.4064 20.5398 25.2573 19.4872 30.0099C18.1813 35.5795 18.4018 39.4825 19.4556 44.1488C24.39 65.7475 42.3093 85.6137 66.5665 92.1901C66.5665 92.1901 66.5665 92.1901 66.5878 92.2568C66.5211 92.2782 66.409 92.3877 66.3637 92.4758C58.5491 91.7422 49.0426 99.2773 49.2229 116.145C49.216 118.649 49.5452 120.825 49.7539 121.935C49.9224 122.69 50.0028 123.401 50.5374 125.069C51.0507 126.671 51.5049 127.629 52.1328 128.899C52.3278 129.278 53.0439 130.594 53.5007 131.331C57.0911 137.024 61.041 140.394 67.6142 141.158C69.2587 154.097 78.3671 165.528 70.6152 174.635C69.2463 176.104 67.5248 177.391 65.5305 177.368C67.3718 175.306 68.3883 173.656 67.9145 170.57C67.545 168.039 65.196 162.316 60.6419 163.261C53.8213 164.71 54.186 175.264 62.3324 177.952C60.2028 180.032 57.067 182.877 56.142 186.19C54.6624 191.447 57.1895 195.2 59.2948 199.014C63.8339 206.979 58.698 208.404 62.1225 213.12C63.0601 214.438 65.2579 216.015 67.7595 216.244C73.2273 216.773 71.9262 214.32 70.9705 214.553C67.9461 215.448 65.8688 214.937 63.8498 213.229C59.9025 209.637 63.8767 207.112 62.0136 201.528C59.8486 195.231 53.5674 190.327 60.5988 182.186C61.4741 181.244 63.6465 179.297 64.5218 178.354C68.4385 178.865 71.5717 176.242 73.6047 172.941C79.162 163.875 70.9742 151.414 69.742 141.138C72.1127 141.188 73.5783 140.939 75.2441 140.626C78.4875 139.955 81.9835 136.627 82.2807 132.043C82.3655 130.47 82.2766 128.585 81.4297 127.091C80.4946 125.551 77.8459 124.633 76.3162 124.682C72.325 124.857 66.8465 130.954 67.5869 139.695C59.2915 138.379 53.5401 129.847 52.0177 121.651C48.9652 105.925 56.9242 94.2497 65.0828 93.9901C63.7301 95.9689 62.4138 102.425 62.3633 102.956C62.2837 104.085 63.2692 105.094 64.935 104.781C66.6008 104.468 67.4171 102.882 69.0718 101.616C72.3094 99.5482 74.995 99.2027 75.4776 97.7235C76.0509 96.068 74.1259 95.8018 69.9117 92.2955C74.7081 89.5811 74.2749 94.4295 78.9076 96.2564C83.8714 98.198 86.6617 92.6678 84.2338 89.9136C88.0557 87.1436 88.0166 82.888 88.2246 82.1591C89.3616 81.574 87.8687 80.3599 87.1192 81.9246C86.8017 82.5415 86.4644 86.7705 83.0267 88.9023C77.8114 85.7168 78.9703 92.7777 83.3637 90.4132C85.6846 92.8337 81.8694 98.8395 76.3643 91.9939C74.5079 89.6453 72.3211 89.0215 69.7347 90.3654C84.3266 68.6172 88.0632 46.521 74.711 24.6026ZM63.1196 176.963C54.0816 174.708 55.5427 163.423 62.1133 164.408C64.6979 165.125 67.1856 170.362 65.7506 173.692C65.0943 174.859 64.0163 176.087 63.1196 176.963ZM77.3205 125.979C79.8623 126.563 80.4073 127.345 80.8589 128.525C82.142 132.529 80.3896 136.475 77.5071 138.503C75.1851 139.983 72.1042 140.013 69.4905 139.894C68.5901 131.573 73.2062 125.311 77.3205 125.979ZM80.4959 89.2717C80.5413 89.1836 80.5626 89.2504 80.4959 89.2717C80.5413 89.1836 80.5626 89.2504 80.4959 89.2717ZM80.6294 89.229C80.608 89.1622 80.608 89.1622 80.6294 89.229C80.608 89.1622 80.608 89.1622 80.6294 89.229C80.608 89.1622 80.608 89.1622 80.6294 89.229ZM80.6961 89.2076C80.9177 89.2102 81.2274 89.2581 81.6466 89.4181C81.1581 89.5011 80.9819 89.4104 80.6961 89.2076ZM21.3598 32.8684C21.3812 32.9351 21.3145 32.9565 21.3359 33.0232L21.3598 32.8684ZM21.3119 33.1781C21.3333 33.2448 21.2666 33.2662 21.2879 33.333C21.2666 33.2662 21.3119 33.1781 21.3119 33.1781ZM65.1901 101.903C65.957 96.9478 69.4125 99.0048 71.8304 96.9054C71.9399 97.0174 72.028 97.0628 72.2043 97.1535C66.5215 99.8576 67.2316 99.7772 65.1901 101.903ZM70.7542 96.0728C69.505 96.7675 66.8032 96.603 65.2554 98.2028C65.6739 96.5234 66.0658 95.2204 67.1652 94.0587C67.4749 94.1066 67.7205 93.9543 67.8565 93.69C69.1732 94.8134 69.1278 94.9015 70.7542 96.0728ZM77.8448 69.5168C74.5461 78.7421 66.9901 90.0675 66.694 90.7511C63.7997 89.986 56.4139 86.6866 53.9012 85.5049C53.9012 85.5049 40.406 79.6744 27.5457 59.2909C25.4566 55.9866 24.1495 52.1374 23.7004 50.7359C20.5329 41.0808 20.7025 37.9358 21.3573 33.09C21.674 30.6337 23.0473 26.8822 25.3712 23.3412C32.431 12.7635 45.0763 9.74157 52.8378 11.2281C55.6012 11.8143 57.7161 12.9027 60.2955 14.063C64.2156 16.1919 66.0635 17.3658 69.4932 21.6386C79.8703 34.5025 83.6448 52.9408 77.8448 69.5168Z" fill="#EFE2DA"/>
<path d="M68.2826 26.589C68.109 26.2767 67.5751 26.4477 67.4818 26.8456C67.4792 27.0672 68.5477 28.5644 68.7 28.81C70.7036 31.8473 72.1279 35.1439 72.8284 37.7893C75.1011 46.2594 74.2797 48.2887 75.4971 48.4137C76.7146 48.5387 76.3588 46.7395 75.5778 43.3839C73.2966 33.7391 71.0955 30.5444 68.2826 26.589Z" fill="#EFE2DA"/>
<path d="M75.1784 51.0915C74.7087 51.4628 74.9037 51.8418 75.0995 54.0603C75.1397 54.4153 75.4469 54.6848 75.8019 54.6446C76.8645 54.7457 76.637 53.3468 76.5456 51.6836C76.5105 50.8854 75.6935 50.6321 75.1784 51.0915Z" fill="#EFE2DA"/>
<path d="M76.3239 57.4208C75.5043 57.3891 75.8277 58.1685 75.6658 60.6488C75.4826 63.0623 74.9948 64.9847 74.1733 67.014C70.986 74.2903 70.8474 74.7763 71.6858 75.0963C72.4147 75.3043 72.5747 74.885 74.2202 70.6048C75.3163 67.8252 76.658 64.8933 76.7763 60.4401C76.8003 60.2852 76.8714 57.9812 76.8073 57.781C76.7645 57.6476 76.5669 57.4901 76.3239 57.4208Z" fill="#EFE2DA"/>
<path d="M68.9078 79.5185C68.4757 80.4664 67.9982 81.5025 67.5661 82.4504C67.3394 82.891 67.8869 83.4514 68.4661 83.1922C68.7117 83.0399 70.2108 79.9104 70.192 79.6221C70.0877 79.0668 69.2039 78.8349 68.9078 79.5185Z" fill="#EFE2DA"/>
<path d="M31.7782 21.288C30.5025 22.359 29.315 23.4755 28.2797 24.8374C25.3526 28.7925 24.2432 38.42 25.0311 39.2713C25.5119 39.8531 26.4034 39.4203 26.4326 38.8222C26.5114 35.8535 26.8916 31.7579 27.7901 28.8209C28.6886 25.8838 29.2062 25.2028 30.9996 23.4508C31.8295 22.5961 33.0333 21.9896 32.4858 21.4292C32.3121 21.1169 32.0024 21.0689 31.7782 21.288Z" fill="#EFE2DA"/>
<path d="M26.6494 46.8477C25.9606 46.9948 26.2626 47.7075 26.7065 49.5521C26.8134 49.8858 27.236 51.6637 27.5217 51.8665C27.8956 52.1146 28.432 51.7219 28.3037 51.3215C27.2157 47.6965 27.4716 46.6578 26.6494 46.8477Z" fill="#EFE2DA"/>
<path d="M30.9357 59.3084C30.3564 59.5676 30.5061 60.0347 31.8261 62.776C32.9296 65.0715 33.6645 66.6757 34.4704 65.9759C34.6946 65.7569 34.8093 65.4258 34.5475 65.0682C32.0392 61.6039 32.1395 58.7019 30.9357 59.3084Z" fill="#EFE2DA"/>
</svg>
