<svg width="210" height="151" viewBox="0 0 210 151" fill="none" xmlns="http://www.w3.org/2000/svg">
<path d="M161.684 8.51741C159.906 10.5866 161.822 14.9752 163.321 17.4094C164.698 19.6918 173.083 31.0496 178.854 35.5909C178.63 35.3724 178.751 35.5241 178.957 35.6577C175.817 46.7274 160.647 54.3286 156.48 46.0672C158.179 45.7035 162.999 45.383 165.014 43.1742C167.971 39.9643 165.186 34.4283 159.408 35.6651C155.754 36.4471 153.647 40.7194 153.901 44.3975C151.594 45.2466 149.433 46.7756 147.776 48.9966C145.699 51.7515 149.462 52.7236 149.365 50.6114C150.015 49.4948 151.867 47.7655 154.392 46.6918C158.116 56.2034 174.006 52.8024 180.407 39.5243C179.574 44.768 177.34 47.2012 174.231 51.7768C171.542 55.8183 166.781 64.3021 148.005 77.474C144.442 79.9251 138.851 83.6989 130.997 87.6906C117.521 94.485 96.4771 99.9665 87.391 101.111C55.5381 105.085 24.5028 91.2878 9.10304 74.1442C19.7297 77.2907 21.8723 76.921 25.2773 76.6366C30.06 76.1462 32.3424 74.769 33.7873 73.2156C34.9469 71.9899 35.5906 70.4302 36.0462 68.8219C45.7218 64.6182 50.6591 52.8085 59.0835 51.8941C59.6966 51.8518 59.7997 51.9186 60.0061 52.0521C61.2258 52.7686 61.7777 54.5167 61.9596 55.3665C61.9777 55.4515 61.8928 55.4696 61.911 55.5546C61.7288 55.9491 61.5952 56.1554 61.6861 56.5803C62.0317 58.1948 64.8237 57.9527 64.4906 54.7359C64.4301 54.0379 63.7933 52.308 62.8043 51.0089C61.2085 48.951 59.0296 49.1507 56.7716 49.8117C55.4302 50.1877 54.55 50.6427 52.9597 51.5163C48.8987 53.7185 43.4647 61.5466 36.7025 65.66C36.4971 61.7937 30.7501 59.0247 26.7252 62.641C23.6959 65.5111 26.0617 70.3368 32.8535 69.683C31.4751 72.3774 29.1322 73.0566 26.1217 73.5232C19.6757 74.5474 18.1891 72.9993 8.32069 71.7345C8.75779 71.2854 8.64866 70.7756 8.60633 70.1626C14.1494 62.8443 14.5138 62.0554 16.2566 58.572C18.9952 53.0981 21.6435 44.7109 17.997 39.7149C16.2436 37.3353 12.8326 37.1767 9.83344 41.0178C8.86203 42.2922 8.20011 43.7669 7.62317 45.2234C4.12511 53.7924 5.19784 60.0502 5.97897 67.4368C5.43932 65.3306 3.51056 60.0558 1.79974 57.045C1.4843 56.4016 0.301214 54.6109 -1.13679 52.8747C-2.71434 50.9017 -4.4681 49.7663 -6.87752 49.3045C-15.6595 47.7182 -15.1724 66.1874 3.53761 73.4691C-0.494445 81.6193 -5.1392 88.5675 -14.3344 89.2026C-15.0324 89.2631 -15.9367 89.19 -16.6893 88.9956C-13.0225 85.367 -12.4023 80.7909 -14.1191 77.337C-17.7408 70.3807 -25.4798 72.8368 -25.7002 80.5267C-25.7735 82.6752 -24.8883 86.3959 -22.091 89.0853C-27.6451 91.7848 -38.728 92.735 -39.7985 101.851C-40.2243 105.674 -37.5778 104.753 -37.5775 103.508C-37.4418 94.5925 -25.4549 94.9596 -19.2874 90.9736C-13.4555 93.7244 -6.34139 90.4245 -3.65825 88.4283C-0.689765 86.1045 2.67349 82.7186 6.39605 74.3681C6.89337 75.8613 11.2745 79.7225 12.8279 81.1673C12.8461 81.2523 12.8643 81.3373 12.7975 81.4405C14.4764 90.9455 12.6793 92.9297 14.0156 113.705C14.6562 124.588 14.2041 136.593 16.5101 138.232C18.9192 139.938 22.8412 135.011 24.6686 132.754C27.1941 130.436 45.8041 99.8812 46.1867 99.1772C49.1483 100.143 52.7229 101.066 55.7331 101.844C56.9335 107.452 65.9004 146.857 70.5123 150.135C71.3557 150.755 72.6 150.755 73.9113 149.408C77.1895 146.04 81.8487 130.024 82.6504 127.542C83.7316 124.289 83.8711 124.526 87.1208 113.966C87.3638 113.025 91.1657 102.97 91.1657 102.97C93.3083 102.6 96.3006 102.048 101.108 100.842C105.531 107.804 112.635 117.748 119.013 123.048C119.219 123.181 119.219 123.181 119.013 123.048C119.838 123.582 120.275 124.377 124.808 126.873C125.615 127.322 132.436 131.372 137.468 132.872C146.486 135.563 145.783 132.692 144.309 128.298C141.161 118.574 133.879 89.1176 133.879 89.1176C140.156 85.6414 144.532 82.8385 149.801 79.2224C163.339 90.9881 168.772 88.1369 183.451 98.5919C184.398 99.278 191.261 103.941 193.112 104.7C194.981 105.544 196.456 104.962 196.766 102.674C196.845 102.213 196.797 101.156 196.7 100.289C196.361 97.8728 194.718 89.782 193.329 85.3692C191.492 79.2752 189.314 73.2538 186.815 67.3902C185.511 64.2035 184.092 61.3081 182.229 58.4186C181.028 56.5429 179.808 54.5822 178.607 52.7064C178.449 52.3847 178.207 52.0812 178.134 51.7413C177.928 50.3635 180.047 46.9773 180.678 45.7758C181.11 44.8837 183.004 41.2789 182.446 40.332C183.283 41.7524 183.787 42.4444 184.654 43.5918C192.997 54.3366 214.375 47.095 208.552 32.3451C206.241 26.5301 202.223 25.6126 198.915 28.0092C196.535 29.7626 196.061 32.5301 196.51 35.4557C196.607 36.3236 197.924 36.6638 198.543 35.8203C198.877 35.3045 198.701 34.8978 198.507 33.162C198.332 29.0226 202.035 28.0524 203.886 28.8116C209.002 31.538 211.432 44.97 197.509 46.3504C195.585 46.4956 194.079 46.1068 192.332 45.4145C187.914 43.8718 185.778 40.9519 183.218 35.6345C183.248 35.3614 183.109 35.1246 182.884 34.9061C182.745 34.6693 182.69 34.4144 182.551 34.1777C184.907 26.9193 189.831 19.2003 190.519 10.7884C190.988 3.84514 187.894 -0.646937 184.434 0.626776C182.704 1.26363 181.435 3.22372 180.555 4.92293C178.976 7.92686 178.538 10.8643 178.192 14.2267C177.814 17.8621 178.19 20.4477 178.577 25.1637C176.618 20.1621 173.949 15.5791 171.176 12.1735C170.915 11.785 170.12 10.9776 169.362 10.3401C166.279 7.97837 163.615 6.32685 161.684 8.51741ZM163.989 40.461C163.327 43.1799 158.453 43.2454 155.819 43.8092C155.809 35.4578 164.476 36.0912 163.989 40.461ZM27.7079 64.7413C28.6734 63.0239 31.7811 62.181 33.7409 64.6942C34.1595 65.4044 34.1654 65.8475 33.7888 66.9945C30.8511 67.801 26.888 67.1385 27.7079 64.7413ZM8.19262 49.5449C10.0761 41.3214 14.8112 37.2864 16.8554 42.2699C19.6088 50.5673 9.57896 63.9114 8.12781 66.2659C7.33445 59.2374 6.74055 55.6321 8.19262 49.5449ZM-19.8268 87.6232C-23.6134 84.8789 -25.3537 78.4085 -21.6264 75.478C-17.7536 73.2272 -12.1536 81.5375 -19.8268 87.6232ZM4.9342 70.8596C-20.2083 59.2671 -8.10706 38.9923 1.80479 61.2207C3.8066 65.5912 4.40081 67.9523 4.9342 70.8596ZM34.6965 102.792C34.6783 102.707 36.6644 97.0385 36.6462 96.9535C36.628 96.8685 36.6098 96.7836 36.5067 96.7168C36.9134 96.5409 37.2533 96.4681 37.3505 96.0918C37.3991 95.9037 37.3627 95.7337 37.3263 95.5638C37.4295 95.6306 37.5326 95.6974 37.6176 95.6792C36.8218 98.6044 35.8134 102.197 35.7648 102.385C35.3399 102.476 35.1032 102.616 34.6965 102.792ZM30.2431 121.43C30.2249 121.345 30.2249 121.345 30.2431 121.43C30.3403 121.053 32.6123 112.569 32.7095 112.193C32.94 112.854 32.7095 112.193 33.1037 113.619C32.9337 113.655 32.782 113.777 32.7334 113.965C31.561 118.037 31.5246 117.867 30.577 120.914C30.5103 121.017 30.2431 121.43 30.2431 121.43ZM33.4797 114.96C33.5524 115.3 33.607 115.555 33.8497 115.859C33.4489 116.478 33.1332 117.079 32.7325 117.698C32.9573 116.672 33.2185 115.816 33.4797 114.96ZM29.6244 119.785C29.5881 119.615 29.4667 119.463 29.4303 119.293C30.0138 115.791 31.2834 111.343 31.2834 111.343C31.2653 111.258 31.2653 111.258 31.2471 111.173C31.4838 111.033 31.7205 110.894 32.0423 110.736C31.1734 114.565 30.6024 116.465 29.6244 119.785ZM28.684 118.297C28.3927 118.182 28.1378 118.237 27.8829 118.291C28.4783 115.675 28.7455 115.263 29.1528 112.598C29.5413 112.338 29.948 112.162 30.3365 111.901C29.3039 114.966 29.0973 116.076 28.684 118.297ZM26.6506 119.177C26.4139 119.317 26.1953 119.541 25.9586 119.681C26.3414 117.732 26.955 115.202 27.3257 113.612C27.5624 113.472 27.7991 113.333 27.9509 113.211C27.3918 115.997 27.1733 116.221 26.6506 119.177ZM24.6777 120.755C24.3741 120.997 24.0706 121.24 23.7671 121.483C24.551 117.671 24.1744 118.818 25.1282 114.971C25.4499 114.813 25.7535 114.57 26.0752 114.412C25.2367 117.969 24.9511 119.541 24.6777 120.755ZM22.6016 122.265C22.5166 122.284 22.2799 122.423 22.1949 122.441C22.0735 122.289 22.0372 122.12 21.9158 121.968C22.2196 120.481 21.8249 121.543 23.1798 115.832C23.6228 115.826 23.6896 115.723 24.0295 115.65C23.4463 117.908 23.5676 118.059 22.6016 122.265ZM19.0078 124.99C19.0928 124.971 19.0928 124.971 19.0078 124.99V124.99ZM17.9368 136.594C17.8518 136.612 17.7668 136.63 17.6819 136.648C21.1501 125.864 17.9917 135.605 20.3725 128.874C20.4939 129.026 20.3725 128.874 20.5788 129.008C19.3701 132.91 19.1456 132.692 17.9368 136.594ZM19.6203 127.436C19.7598 127.672 19.6748 127.691 19.7962 127.842C18.5996 131.387 18.8367 130.003 17.2999 134.864C17.2636 134.694 17.2272 134.524 17.2758 134.336C18.1807 131.921 17.9804 132.23 19.6203 127.436ZM17.1428 132.054C17.1369 131.611 17.0459 131.186 17.04 130.743C18.0907 127.763 18.5886 126.768 19.0016 125.791C19.038 125.961 19.038 125.961 19.1775 126.197C17.5984 130.446 17.3372 131.301 17.1428 132.054ZM16.8888 128.376C16.8709 127.047 16.8647 127.848 16.8528 126.962C17.2899 126.513 17.4416 126.391 17.8787 125.942C17.5812 126.628 17.1864 127.69 16.8888 128.376ZM16.2801 110.999C16.4319 110.878 17.0938 109.403 17.1424 109.215C16.7172 110.55 16.5592 111.473 16.3648 112.225C16.292 111.885 16.286 111.442 16.2801 110.999ZM20.6207 106.782C20.9117 108.142 20.748 107.377 20.9299 108.226L18.0565 118.884C17.2127 119.509 17.6012 119.248 16.9759 119.648C16.9941 119.733 19.6368 109.659 20.6207 106.782ZM21.2485 120.511C21.0908 120.189 20.9513 119.952 20.7936 119.631C20.9271 119.424 21.9418 115.03 21.9722 114.757C22.0268 115.012 22.0813 115.267 22.3058 115.486C21.7772 117.998 21.6132 118.478 21.2485 120.511ZM21.3846 110.351C21.5119 110.946 21.6574 111.626 21.6997 112.239C21.2441 113.847 20.3571 117.591 20.1627 118.344C19.92 118.04 19.6469 118.01 19.3919 118.065C21.0563 112.554 19.9933 115.892 21.3846 110.351ZM16.673 117.402C16.6307 116.789 16.5883 116.176 16.546 115.563C16.7708 114.538 17.1901 112.759 17.4331 111.819C17.4331 111.819 18.1194 109.628 19.3219 106.527C19.4737 106.405 19.7104 106.266 19.8622 106.144C18.7447 109.227 17.2685 114.787 16.673 117.402ZM17.5676 107.88C17.5494 107.795 17.5494 107.795 17.6343 107.777L17.5676 107.88ZM16.1895 109.33C16.1531 109.16 16.1349 109.075 16.1835 108.887C16.2503 108.784 16.4202 108.747 16.487 108.644C16.3534 108.851 16.3048 109.039 16.1895 109.33ZM15.3643 83.4682C15.5706 83.6018 15.7952 83.8204 16.0015 83.954C15.8434 84.8765 15.7462 85.2527 15.6186 85.9021C15.4371 83.8082 15.4553 83.8931 15.3643 83.4682ZM17.9979 85.3929C17.5063 85.587 17.0146 85.7811 16.5229 85.9752C16.6506 85.3258 16.7174 85.2226 16.845 84.5732C17.2576 84.8404 17.5853 85.1257 17.9979 85.3929ZM15.8595 93.6709C16.4179 93.3737 16.8914 93.0946 17.4681 92.8823C16.5572 94.8546 16.3991 95.7772 15.8586 97.4036C15.8589 96.1594 15.8592 94.9152 15.8595 93.6709ZM17.9108 94.1206C18.093 93.7261 18.5909 92.7309 18.3482 92.4273C18.7549 92.2514 19.0766 92.0937 19.4833 91.9178C19.3679 92.2091 16.9385 99.1276 17.0962 99.4493C16.7927 99.692 16.386 99.8679 16.0825 100.111C17.1332 97.1308 17.4007 95.4739 17.9108 94.1206ZM20.7216 91.475C21.0433 91.3173 21.3832 91.2446 21.7049 91.0868C20.8241 94.0303 21.3343 92.6769 19.7612 97.3681C19.6944 97.4713 19.7126 97.5563 19.7308 97.6413C19.2755 98.0053 18.802 98.2844 18.3467 98.6484C18.3467 98.6484 20.6366 91.4932 20.7216 91.475ZM22.925 90.5591C23.7384 90.2073 23.7384 90.2073 24.0783 90.1345C23.5255 92.1191 22.1286 95.9728 22.0982 96.2459C21.7764 96.4036 21.303 96.6827 21.0662 96.8222C22.5848 91.8761 21.8134 94.0851 22.925 90.5591ZM25.0312 90.0195C25.3225 90.1348 25.547 90.3534 25.8383 90.4688C24.6477 94.4561 24.7631 94.1648 23.9855 97.175C23.8096 96.7683 23.5669 96.4647 23.2574 96.2644C24.8609 91.3001 25.3103 90.4929 25.0312 90.0195ZM27.7438 91.4828C27.5921 91.6042 24.9864 99.3602 24.9378 99.5483C24.7619 99.1416 24.6042 98.8199 24.5132 98.395C24.9867 98.116 25.1814 96.1192 26.8335 90.9667C27.143 91.1671 27.4343 91.2825 27.7438 91.4828ZM29.6186 94.0142C29.8005 94.864 30.0492 95.6106 30.231 96.4603C30.0307 96.7698 27.2246 104.835 27.0425 105.23C26.7756 104.398 26.7756 104.398 26.5088 103.567C27.3588 102.141 28.2703 97.6798 29.6186 94.0142ZM30.6434 97.9717C30.8011 98.2934 30.9225 98.4452 31.1106 98.4938C29.6287 102.366 29.3675 103.221 28.5658 105.704C28.244 105.861 28.1591 105.879 27.7524 106.055C28.293 104.429 30.3458 98.6575 30.6434 97.9717ZM32.1667 98.4455C32.8283 98.215 31.845 98.6032 32.5734 98.2696C31.3038 102.718 31.0608 103.659 30.8178 104.599C30.8178 104.599 30.1743 104.915 29.8526 105.073C30.946 101.462 32.1667 98.4455 32.1667 98.4455ZM33.8966 97.8086C34.6432 97.56 34.8799 97.4204 35.5415 97.1899C34.752 99.314 34.0474 101.42 33.4278 103.508C32.9362 103.702 32.6145 103.859 32.1228 104.054C32.3172 103.301 32.87 101.316 33.8966 97.8086ZM39.4018 96.5415C39.0616 97.8584 38.035 101.366 37.1483 103.867C36.9905 103.545 36.9178 103.205 36.6933 102.986C37.1548 101.821 38.4367 97.0146 38.6311 96.2621C38.7342 96.3289 39.3168 96.5597 39.4018 96.5415ZM37.9852 106.531C37.8943 106.106 37.9488 106.361 37.682 105.53C38.1799 104.535 40.0387 98.2714 40.2939 96.9726C40.5852 97.088 40.8765 97.2034 41.0828 97.337C41.186 97.4038 39.7283 101.804 37.9852 106.531ZM36.6587 95.3512C36.5738 95.3694 32.4037 97.0617 31.7239 97.2072C31.6694 96.9523 30.8933 93.7414 30.8387 93.4865C31.0573 93.262 31.0209 93.092 30.9663 92.8371C32.6291 93.5476 32.9204 93.663 36.6587 95.3512ZM29.1154 92.078C25.617 101.891 28.5017 94.6087 25.9265 102.092C25.7688 101.77 25.6778 101.345 25.5201 101.023C25.6355 100.732 28.5873 92.1021 28.6177 91.829C28.9272 92.0294 28.8241 91.9626 29.1154 92.078ZM23.3138 89.054C22.6522 89.2845 18.1604 91.1345 15.8416 92.3418C15.8604 89.9383 15.8303 88.9672 15.7456 87.7412C16.8625 87.1466 17.9976 86.6371 19.2541 86.2793C20.5952 87.1476 21.9727 88.1858 23.3138 89.054ZM19.0537 135.999C20.1167 132.662 20.5538 132.212 21.5499 128.978C21.9566 128.802 21.9566 128.802 22.2601 128.559C21.0332 132.376 22.0294 129.142 20.0979 135.065C19.8307 135.478 19.4422 135.738 19.0537 135.999ZM26.3208 127.601C26.2358 127.619 26.3208 127.601 26.3208 127.601C26.2358 127.619 26.3208 127.601 26.3208 127.601ZM21.7795 133.372L21.7127 133.475C22.4659 131.181 23.1096 129.621 23.6442 127.552C23.9477 127.309 23.711 127.449 24.0995 127.188C22.8362 130.835 22.5204 131.436 21.7795 133.372ZM23.6251 131.2C24.2993 129.367 24.7426 128.117 25.4168 126.284C25.5199 126.351 25.5563 126.521 25.6777 126.672C25.1067 128.572 24.6087 129.567 24.3294 130.338C24.129 130.647 23.8437 130.975 23.6251 131.2ZM27.1222 126.363C25.9392 124.572 25.4901 124.135 23.8875 125.367C22.9102 126.198 21.8842 127.218 21.174 127.636C19.269 124.134 20.01 122.198 16.7621 125.292C16.7624 124.048 16.7627 122.804 16.6781 121.578C17.1334 121.214 18.7541 120.067 19.2094 119.703C21.1686 124.705 21.4477 125.178 25.0414 122.454C25.1264 122.436 25.2114 122.418 25.3449 122.211C26.2555 121.483 27.0143 120.877 27.9249 120.148C28.4708 121.453 28.7923 122.54 29.1745 123.08C28.5066 124.112 27.8569 125.228 27.1222 126.363ZM35.0823 113.729C33.7123 106.913 33.008 107.774 30.1004 109.552C24.4368 112.986 27.0046 111.281 23.8784 113.283C23.6482 111.377 22.302 106.333 21.8351 104.567C21.8474 104.209 21.5683 103.735 21.192 103.638C20.3363 103.377 19.1404 104.433 16.0383 106.963C15.9295 105.209 15.9238 103.522 15.9 101.749C18.4191 100.233 21.0173 98.2546 22.4741 97.5873C22.8745 98.2125 25.131 103.773 25.6948 106.407C26.2708 108.683 27.0478 108.161 30.9084 106.269C37.0391 103.357 32.7901 105.51 35.546 103.854C36.371 105.633 36.5704 109.056 37.5111 109.299C36.6974 110.895 35.9991 112.2 35.0823 113.729ZM38.8287 107.151C39.6546 105.196 41.5253 99.8194 42.0599 97.7499C42.2662 97.8835 42.4543 97.9321 42.7456 98.0475C42.3205 99.3826 41.6037 101.847 41.2453 103.079C40.7959 103.886 41.0267 103.303 38.8287 107.151ZM43.2671 100.069C43.4129 99.5043 43.5769 99.0249 43.8077 98.4423C43.9958 98.4909 44.099 98.5576 44.2871 98.6063C43.85 99.0553 43.6011 99.5529 43.2671 100.069ZM88.3433 103.485L88.3252 103.4L88.4101 103.382C88.3251 103.4 88.3433 103.485 88.3433 103.485ZM85.1933 103.715C85.4482 103.66 85.7213 103.69 85.9763 103.636C86.3946 105.59 86.4551 106.288 86.4306 107.004C85.9572 107.284 85.9572 107.284 85.7872 107.32C85.6176 106.112 85.3629 104.922 85.1933 103.715ZM87.3722 103.515C87.8272 104.395 87.6874 105.402 87.1531 106.228C87.1048 105.172 86.9411 104.407 86.7592 103.557C86.9292 103.521 87.2023 103.551 87.3722 103.515ZM84.4953 103.775C84.7499 104.965 84.9196 106.173 85.071 107.295C84.6947 107.198 84.6947 107.198 84.4884 107.065C84.4884 107.065 84.2037 104.904 84.0522 103.781C84.2404 103.83 84.3253 103.811 84.4953 103.775ZM83.1843 103.878C83.1843 103.878 83.2693 103.86 83.1843 103.878C83.2812 104.746 83.4631 105.596 83.56 106.464C82.9532 105.705 82.5286 104.551 83.1843 103.878ZM67.6093 107.922C67.5551 106.423 67.5369 106.338 67.5375 103.85C67.7257 103.898 67.8106 103.88 67.9988 103.929C68.2898 105.288 68.4108 106.684 67.6093 107.922ZM61.6686 103.417C61.5347 104.868 61.504 106.385 61.5582 107.884C60.8969 106.871 60.5391 105.614 61.1524 104.328C61.1161 104.158 61.4986 103.454 61.6686 103.417ZM62.4685 108.401C62.4446 106.628 62.524 104.923 62.6033 103.217C62.7914 103.266 62.9614 103.23 63.1495 103.278C63.1495 103.278 63.0084 109.263 63.0266 109.348C62.5108 109.014 62.5108 109.014 62.2863 108.795C62.3531 108.692 62.4199 108.589 62.4685 108.401ZM64.072 103.436C64.4301 103.448 64.7032 103.479 65.0613 103.491C64.9572 107.157 65.0601 108.468 65.1266 109.609C64.8716 109.664 64.7017 109.7 63.9673 109.591C64.0463 109.129 64.163 103.861 64.072 103.436ZM65.9838 103.649C66.1719 103.698 66.2569 103.68 66.4451 103.728C66.4448 104.972 66.3958 106.405 66.6865 109.009C66.5348 109.13 66.2131 109.288 66.0431 109.324C65.9826 108.626 65.9283 107.127 65.9838 103.649ZM68.5907 140.327C68.7058 141.28 68.7967 141.705 69.2758 143.113C69.1727 143.046 69.0877 143.064 69.0695 142.979C68.8572 142.403 68.7299 141.808 68.5176 141.231C68.5785 140.685 68.3781 140.994 68.5907 140.327ZM71.218 143.053C70.9029 141.165 70.7938 140.655 70.5451 139.909C71.7103 140.37 72.4321 142.082 71.218 143.053ZM69.7258 139.817C69.8713 140.497 69.9867 140.206 70.5078 143.471C70.3379 143.508 70.2347 143.441 70.0648 143.477C69.6038 142.154 69.3856 141.134 69.2159 139.926C69.7076 139.732 69.5376 139.769 69.7258 139.817ZM79.7556 126.473C79.962 126.607 80.1683 126.74 80.3746 126.874C80.326 127.062 80.2592 127.165 80.2106 127.353C79.7616 126.916 79.7252 126.746 79.7556 126.473ZM80.9638 125.059C80.7574 124.926 80.5511 124.792 80.363 124.744C80.5147 124.622 80.9092 124.805 81.0124 124.871C80.9456 124.974 80.9638 125.059 80.9638 125.059ZM79.8591 125.296C80.2717 125.563 80.2717 125.563 80.6662 125.745C80.5994 125.848 80.6358 126.018 80.569 126.121C80.4658 126.055 79.8651 125.739 79.7619 125.672C79.8287 125.569 79.8105 125.484 79.8591 125.296ZM81.2736 124.016C79.1799 122.953 77.9288 126.242 79.5186 127.857C79.6399 128.009 79.7431 128.076 79.8644 128.227C76.2382 139.934 73.9846 147.259 71.5809 148.485C70.8101 148.205 69.6941 145.067 69.4455 144.321C70.7138 144.849 71.9825 144.133 72.5958 142.847C72.778 142.452 72.8206 141.821 72.6933 141.226C72.5478 140.546 71.9229 139.703 71.2008 139.235C70.3937 138.786 68.9613 138.737 68.2025 139.344C67.9839 139.568 68.0021 139.653 67.9353 139.756C66.6193 135.683 62.9013 125.371 58.009 102.512C58.8465 102.688 59.5809 102.798 60.4184 102.974C56.8482 108.715 65.4289 114.343 68.8473 108.724C69.3634 107.814 69.6732 106.77 69.6249 105.714C69.6857 105.167 69.5584 104.573 69.4311 103.978C73.3215 104.3 78.177 104.15 82.0432 103.944C81.1869 106.172 84.0084 109.389 86.5457 107.957C83.7459 115.222 84.9481 113.365 81.2736 124.016ZM128.019 126.097C128.086 125.994 128.171 125.975 128.238 125.872C128.171 125.975 128.189 126.06 128.122 126.164C128.122 126.164 128.122 126.164 128.019 126.097ZM132.574 113.747C132.811 112.363 132.836 111.647 133.656 109.25C133.625 109.523 133.515 112.746 133.655 112.982C133.897 113.286 134.407 113.177 134.517 112.442C134.559 111.811 134.645 110.549 134.693 110.361C134.681 110.719 134.644 113.037 134.784 113.274C134.256 113.298 133.679 113.51 132.574 113.747ZM117.503 118.483C117.418 118.501 117.418 118.501 117.503 118.483C117.788 118.155 119.397 114.878 119.665 114.466C119.142 116.177 119.337 115.425 118.766 117.324C118.225 117.706 117.855 118.052 117.503 118.483ZM122.524 111.632C123.137 111.59 123.75 111.547 124.345 111.42C124.108 111.56 123.993 111.851 123.792 112.16C123.246 112.1 123.082 112.579 122.177 113.75C122.39 113.083 122.372 112.998 122.451 112.536C122.481 112.263 122.154 111.978 121.832 112.136C121.443 112.397 120.812 113.598 120.545 114.011C120.624 113.55 121.134 112.196 121.043 111.771C123.119 111.505 122.779 111.578 122.524 111.632ZM135.223 105.36C135.241 105.445 135.277 105.614 135.295 105.699C135.162 105.906 135.168 106.349 135.137 106.622C134.585 106.118 134.409 106.956 134.196 107.623C134.142 107.368 133.935 107.235 133.765 107.271C134.354 106.701 134.64 106.373 135.223 105.36ZM132.873 108.084C132.94 107.981 133.092 107.86 133.177 107.841C133.128 108.03 132.946 108.424 132.915 108.697C132.964 108.509 132.909 108.254 132.873 108.084ZM129.334 111.063C129.091 110.76 128.563 110.784 128.381 111.178C128.12 110.79 127.507 110.832 127.24 111.245C126.955 111.573 126.772 111.967 126.487 112.295C126.342 111.615 125.759 111.384 125.322 111.833C125.164 111.511 125.146 111.426 124.94 111.293C125.619 111.147 128.612 110.596 131.234 109.146C131.119 109.437 131.07 109.625 130.955 109.917C130.299 109.346 129.68 110.189 129.334 111.063ZM118.876 114.101C119.277 112.238 118.567 111.413 116.247 115.108C116.369 114.016 116.509 113.008 115.756 112.814C116.248 112.62 118.864 111.971 120.072 111.801C119.774 112.487 119.009 113.895 118.876 114.101ZM113.765 114.307C114.032 113.894 114.724 113.39 115.198 113.111C114.882 113.712 114.621 114.568 114.493 115.217C114.251 114.914 114.008 114.61 113.765 114.307ZM118.056 114.01C117.752 115.497 117.091 116.972 116.829 117.828C116.605 117.609 116.362 117.305 116.138 117.087C116.617 116.007 117.285 114.975 118.056 114.01ZM120.884 115.182C120.672 115.85 120.672 115.85 120.538 116.056C120.453 116.074 120.453 116.074 120.386 116.178C120.502 115.886 120.684 115.492 120.884 115.182ZM123.385 113.581C123.288 113.957 123.282 114.758 123.44 115.08C122.778 115.31 122.438 115.383 122.031 115.559C122.062 115.286 123.1 113.908 123.385 113.581ZM124.217 113.314C124.314 112.937 124.429 112.646 124.63 112.337C124.648 112.422 124.636 112.78 124.605 113.053C124.356 113.55 124.095 114.406 124.441 114.777C124.356 114.795 124.186 114.831 124.101 114.849C124.217 114.558 124.168 113.502 124.217 113.314ZM125.443 113.229C125.576 113.023 125.625 112.835 125.759 112.628C125.928 113.836 125.655 113.806 125.594 114.352C125.424 114.388 125.339 114.407 125.169 114.443C125.388 114.218 125.431 113.587 125.443 113.229ZM127.828 111.919C127.865 112.089 127.901 112.259 127.889 112.617C127.725 113.096 127.579 113.661 127.603 114.189C127.075 114.213 126.802 114.182 126.547 114.237C126.59 113.606 127.428 112.538 127.828 111.919ZM128.642 112.811C128.708 112.708 128.69 112.623 128.757 112.52C128.799 113.133 128.641 114.055 129.169 114.031C129.715 114.092 129.57 113.412 129.728 112.49C129.874 111.925 130.086 111.258 130.42 110.742C130.548 111.337 130.286 113.437 130.244 114.068C129.206 114.201 129.546 114.128 128.489 114.177C128.538 113.989 128.629 113.169 128.642 112.811ZM131.367 111.428C131.561 110.675 131.64 110.214 132.12 109.134C132.108 109.492 131.652 113.589 131.894 113.892C131.64 113.947 131.385 114.001 131.045 114.074C131.191 112.265 131.464 111.052 131.367 111.428ZM135.853 107.891C135.889 108.061 135.926 108.23 135.877 108.419C135.835 107.806 135.968 110.088 136.047 110.871C136.034 111.229 135.986 111.417 136.313 111.702C136.435 111.854 136.69 111.799 136.823 111.593C136.841 111.678 136.86 111.763 136.878 111.848C136.678 112.158 135.712 112.631 135.476 112.77C135.591 112.479 135.823 108.164 135.853 107.891ZM139.704 121.73C139.601 121.663 139.412 121.614 139.243 121.651C139.291 121.463 139.322 121.189 139.2 121.038C139.285 121.019 139.352 120.916 139.437 120.898C139.576 121.135 139.631 121.39 139.704 121.73ZM136.08 122.239C136.25 122.202 136.42 122.166 136.657 122.026C136.505 122.148 136.353 122.269 136.22 122.475C136.202 122.39 136.183 122.305 136.08 122.239ZM133.968 123.579C133.998 123.306 134.029 123.033 133.889 122.796C134.551 122.566 134.296 122.621 134.976 122.475C134.623 122.906 134.253 123.252 133.968 123.579ZM132.117 124.065C131.57 124.004 131.066 124.556 130.714 124.987C130.66 124.732 130.69 124.459 130.551 124.222C131.583 123.646 131.819 123.506 132.651 123.239C132.432 123.464 132.317 123.755 132.117 124.065ZM133.088 124.034C133.039 124.223 132.778 125.078 132.644 125.285C132.693 125.096 132.656 124.926 132.705 124.738C132.754 124.55 132.887 124.344 133.088 124.034ZM132.238 125.46C132.238 125.46 132.256 125.545 132.238 125.46V125.46ZM129.263 126.097C129.197 126.2 129.063 126.407 128.996 126.51C129.075 126.048 129.257 125.654 129.525 125.241C129.458 125.344 129.227 125.927 129.263 126.097ZM130.58 126.437C130.848 126.025 131.066 125.8 131.436 125.454C131.005 126.346 130.963 126.978 130.853 127.712C130.75 127.645 130.562 127.596 130.459 127.53C130.453 127.087 130.501 126.898 130.58 126.437ZM135.346 123.373C134.641 124.235 133.348 125.667 133.651 126.669C133.33 126.826 133.178 126.948 132.771 127.124C133.348 125.667 133.142 125.534 135.346 123.373ZM137.555 122.901C137.773 122.676 137.907 122.47 138.211 122.227C137.7 123.58 136.456 124.824 137.008 125.328C136.753 125.383 136.516 125.522 136.346 125.559C136.929 124.545 137.361 123.653 137.555 122.901ZM137.403 121.778L137.488 121.759C137.488 121.759 137.488 121.759 137.403 121.778ZM139.273 122.622C139.279 123.065 139.005 124.279 139.181 124.685C138.586 124.813 138.416 124.849 137.84 125.061C138.356 124.151 137.998 124.139 139.273 122.622ZM140.062 122.986C140.165 123.053 140.165 123.053 140.183 123.138C140.341 123.46 140.432 123.884 140.589 124.206C140.183 124.382 140.098 124.4 140.013 124.418C139.994 124.333 140.013 123.174 140.062 122.986ZM131.645 90.3067C131.809 91.0714 132.355 93.6207 132.518 94.3855C129.361 97.9049 124.317 100.495 119.874 102.157C119.874 102.157 119.978 98.4913 120.118 97.4839C121.191 101.253 120.87 101.411 121.567 101.35C121.992 101.259 121.847 100.58 121.786 99.8817C121.483 97.6359 121.459 97.1079 121.496 96.0336C121.939 97.2719 122.321 99.0564 122.593 100.331C122.703 100.841 123.467 100.677 123.358 100.167C123.225 99.1294 122.879 97.5149 122.789 95.8458C123.037 96.5924 123.959 99.2389 123.959 99.2389C124.275 99.8823 124.851 99.67 124.845 99.2269C124.743 97.9159 124.294 96.2346 124.039 95.0449C124.494 95.9251 125.186 97.91 125.295 98.4198C125.422 99.0146 125.883 99.0937 126.102 98.8691C126.405 98.6265 125.933 96.4171 125.842 95.9922C125.696 95.3124 125.636 94.6144 125.557 93.8315C125.521 93.6615 125.587 93.5583 125.551 93.3884C126.243 94.129 126.673 95.7254 126.479 95.2337L126.497 95.3187C126.867 96.217 126.988 97.613 127.583 97.4857C128.348 97.322 127.444 96.0047 127.153 93.4009C127.208 93.6558 127.171 93.4859 127.117 93.231C127.572 94.1111 127.723 95.234 127.923 96.1687C127.978 96.4237 128.069 96.8485 128.275 96.9821C128.585 97.1825 128.973 96.9216 128.9 96.5817C128.694 95.2039 128.318 95.1067 128.41 93.0431C129.125 95.556 128.888 96.9398 129.653 96.7761C130.333 96.6306 129.787 96.5698 130.079 92.9525C130.333 94.1422 130.242 94.9615 130.855 94.9192C131.298 94.9132 131.377 94.452 131.371 94.0089C131.353 93.9239 131.335 93.8389 131.317 93.754C131.681 94.2093 132.355 93.6207 131.991 93.1654C131.881 92.6556 131.433 90.9742 131.22 90.3976C131.305 90.3794 131.475 90.343 131.645 90.3067ZM107.413 104.558C107.371 102.7 107.857 100.819 108.464 99.0894C108.537 99.4293 108.573 99.5992 108.598 100.127C107.662 105.304 109.956 106.057 109.399 100.134C109.447 99.9454 109.478 99.6723 109.526 99.4841C109.854 101.014 109.587 101.426 109.519 102.774C109.495 103.49 109.628 104.528 110.187 104.231C110.575 103.97 110.472 103.903 110.497 103.187C110.539 101.311 110.406 101.518 110.789 99.5694C110.837 99.3813 110.819 99.2963 110.868 99.1082L111.565 104.025C109.471 104.206 108.839 104.163 107.413 104.558ZM105.951 99.8049C106 99.6168 106 99.6168 106.067 99.5136C106.364 100.072 106.412 101.128 106.521 101.638L106.54 101.723C106.54 101.723 106.618 102.506 106.666 104.806C106.581 104.824 106.581 104.824 106.496 104.843C106.375 104.691 106.357 104.606 106.236 104.454C106.278 103.823 106.333 101.589 105.951 99.8049ZM106.917 99.3318C107.171 99.2772 107.426 99.2226 107.663 99.0831C107.499 99.5626 107.335 100.042 107.189 100.606C107.183 100.163 107.111 99.8234 106.917 99.3318ZM105.471 103.374C105.368 103.307 105.35 103.222 105.313 103.052C105.289 102.524 105.35 101.978 105.429 101.516C105.423 102.318 105.447 102.846 105.471 103.374ZM110.006 98.4039C110.091 98.3857 110.261 98.3494 110.346 98.3312C110.279 98.4343 110.249 98.7074 110.182 98.8106C110.024 98.4889 110.024 98.4889 110.006 98.4039ZM117.49 96.0023C117.508 96.0873 117.442 96.1904 117.442 96.1904C117.442 96.1904 117.423 96.1055 117.49 96.0023ZM114.455 98.4293C114.382 98.0894 114.255 97.4946 114.097 97.1728C114.437 97.1001 114.674 96.9606 115.014 96.8878C114.85 97.3673 114.601 97.8649 114.455 98.4293ZM112.616 98.5563C112.689 98.8962 113.003 103.272 113.179 103.679C112.499 103.824 113.009 103.715 112.414 103.843C112.372 101.985 112.549 99.9037 112.616 98.5563ZM113.812 98.7447C114.127 100.632 114.12 101.434 114.29 102.641C114.381 103.066 114.994 103.024 115.006 102.666C115.037 102.393 115 102.223 114.946 101.968C114.685 100.335 114.94 99.0363 115.566 97.3917C116.045 100.044 115.522 103 116.487 102.527C116.809 102.369 116.736 102.029 116.663 101.689C116.609 100.19 116.542 100.293 116.64 98.6726C116.701 98.1264 116.792 97.307 116.804 96.9489C117.089 99.1097 117.306 102.618 117.701 102.8C116.529 103.14 115.049 103.279 113.926 103.43C113.968 102.799 113.441 101.579 113.812 98.7447ZM116.167 96.4632C116.167 96.4632 116.185 96.5482 116.167 96.4632C116.167 96.4632 116.185 96.5482 116.167 96.4632ZM118.011 100.512C117.951 99.814 117.848 98.503 118.127 96.488C118.291 97.2528 118.8 102.121 119.042 102.424C118.957 102.442 118.957 102.442 119.042 102.424C118.721 102.582 118.381 102.655 118.126 102.709C118.278 102.588 118.047 100.682 118.011 100.512ZM121.046 100.573C121.426 107.335 121.046 100.573 121.046 100.573V100.573ZM121.63 94.5831C121.8 94.5467 121.885 94.5285 122.037 94.4072C121.97 94.5103 121.994 95.0384 122.012 95.1234C121.909 95.0566 121.751 94.7348 121.63 94.5831ZM122.783 94.1585C122.868 94.1403 122.953 94.1221 122.953 94.1221C122.989 94.2921 123.008 94.3771 123.044 94.547C123.008 94.3771 122.904 94.3103 122.783 94.1585ZM125.97 92.8544C126.055 92.8362 126.207 92.7149 126.292 92.6967C126.243 92.8848 126.279 93.0548 126.316 93.2247C126.194 93.0729 126.073 92.9212 125.97 92.8544ZM127.257 92.2235C127.427 92.1871 127.493 92.084 127.663 92.0476C127.597 92.1507 127.566 92.4239 127.518 92.612C127.481 92.442 127.463 92.3571 127.257 92.2235ZM129.375 91.3258C129.345 91.5989 129.223 92.6913 129.193 92.9644C129.102 92.5395 128.871 91.8779 128.477 91.6958C128.799 91.538 129.138 91.4653 129.375 91.3258ZM124.58 93.4185C124.549 93.6916 124.568 93.7766 124.646 94.5596C124.47 94.1529 124.331 93.9161 124.173 93.5944C124.343 93.558 124.513 93.5217 124.58 93.4185ZM120.731 94.9531C120.652 95.4143 120.701 96.4704 120.707 96.9135C120.616 96.4886 120.282 95.7602 119.857 95.8511C119.432 95.9421 119.396 97.0163 119.371 97.7325C119.31 98.2788 119.292 98.1938 119.25 98.825C118.965 96.6642 118.977 96.3061 118.662 95.6627C119.323 95.4322 120.07 95.1836 120.731 94.9531ZM112.009 97.7975C111.912 98.1738 111.839 99.0781 111.827 99.4362C111.681 98.7564 111.675 98.3133 111.414 97.9248C111.432 98.0098 111.924 97.8157 112.009 97.7975ZM103.384 100.266C103.979 100.138 104.555 99.926 105.065 99.8169C104.786 100.588 104.555 101.17 104.464 101.99C104.148 101.346 103.766 100.806 103.384 100.266ZM107.297 106.093C107.449 105.972 107.431 105.887 107.413 105.802C109.841 105.104 122.301 106.437 132.852 96.3581C133.628 99.569 133.876 100.316 134.756 103.593C133.735 106.3 130.573 108.132 127.859 109.157C122.973 110.825 115.708 110.514 113.11 113.736C111.047 111.156 110.422 110.312 107.297 106.093ZM118.091 119.157C118.614 118.69 118.547 118.793 118.832 118.465C119.208 118.562 119.324 118.271 119.524 117.962C124.805 113.988 131.566 117.34 137.375 113.341C138.309 116.874 138.527 117.894 139.061 119.557C135.85 121.577 130.296 121.788 127.212 125.647C122.952 123.182 121.235 122.217 118.091 119.157ZM143.458 132.212C141.164 132.703 134.045 129.339 132.656 128.659C132.552 128.592 132.449 128.526 132.346 128.459C136.286 126.105 139.521 125.857 140.996 125.274C142.324 128.989 143.737 131.442 143.458 132.212ZM180.335 62.0233C180.268 62.1265 180.183 62.1447 180.031 62.266C180.061 61.9929 180.092 61.7198 180.122 61.4467C180.28 61.7684 180.335 62.0233 180.335 62.0233ZM178.392 63.3278C178.508 60.548 178.678 59.2674 178.806 57.3738C179.231 58.5271 179.073 58.2054 179.498 59.3587C179.394 60.5361 179.291 61.7135 179.187 62.891C178.714 63.17 178.866 63.0487 178.392 63.3278ZM178.036 55.8502C177.962 59.243 177.652 60.2868 177.53 63.8677C177.208 64.0254 176.82 64.2863 176.498 64.4441C177.033 61.1303 177.197 60.6509 177.654 55.31C177.775 55.4617 177.914 55.6985 178.036 55.8502ZM179.136 73.0328C179.694 73.9798 179.955 74.3683 180.216 74.7568C179.712 75.309 179.324 75.5699 178.698 75.9703C178.923 74.9446 179.027 73.7672 179.136 73.0328ZM177.964 75.8609C178.013 75.6727 177.782 76.2553 178.006 76.4739C177.77 76.6134 177.448 76.7711 177.229 76.9956C177.509 74.9807 177.43 75.4419 177.814 71.0053C178.074 71.3938 178.232 71.7156 178.493 72.1041C178.493 72.1041 178.013 75.6727 177.964 75.8609ZM173.105 89.6978C173.756 86.0927 173.883 85.4434 174.181 83.5134C174.442 83.9019 174.636 84.3935 174.897 84.7821C174.745 86.1476 174.611 87.5982 174.374 88.9819C173.985 89.2428 173.682 89.4855 173.293 89.7464C173.208 89.7646 173.123 89.7828 173.105 89.6978ZM175.491 85.899C175.752 86.2875 175.77 86.3724 176.535 87.453C176.535 87.453 175.236 88.4419 175.151 88.4601C175.491 85.8989 175.23 87.9989 175.491 85.899ZM176.242 68.2313C176.54 68.7897 176.819 69.2632 177.116 69.8216C176.751 74.3432 176.55 75.8969 176.282 77.5538C174.88 78.476 175.42 78.0938 174.965 78.4578C176.229 71.0778 175.865 70.6225 176.242 68.2313ZM177.095 54.363C176.59 59.8921 175.721 64.9658 175.721 64.9658C175.047 65.5544 175.193 66.2342 175.648 67.1144C175.502 67.6788 175.368 69.1293 175.307 69.6755C175.082 71.9454 175.319 71.8059 174.036 79.1009C172.671 80.1931 172.816 80.8729 173.605 82.4814L172.334 89.4184C171.94 89.2362 171.546 89.054 171.169 88.9568C171.57 87.0937 171.837 86.681 171.425 86.4138C172.39 85.9407 171.747 85.0119 171.189 84.065C171.359 84.0286 171.425 83.9254 171.389 83.7555C171.639 80.7694 172.027 79.2643 172.137 78.5299C172.137 78.5299 172.392 77.2312 172.617 76.2055C174.171 75.1619 175.731 74.5615 173.826 72.3032C173.856 72.0301 175.212 61.3423 175.073 61.1056C175.898 60.3956 176.232 59.8798 175.413 58.5444C175.413 58.5444 175.462 57.112 176.106 53.0639C176.246 53.3007 176.974 54.2112 177.095 54.363ZM169.695 88.2949C169.792 87.9186 170.041 87.421 169.731 87.2207C170.138 87.0447 170.526 86.7839 170.933 86.6079C170.806 87.2573 170.678 87.9067 170.55 88.5561C170.192 88.5439 169.901 88.4285 169.695 88.2949ZM168.444 87.8516C168.936 87.6575 168.936 87.6575 169.088 87.5361C169.039 87.7242 168.991 87.9124 168.942 88.1005C168.821 87.9487 168.633 87.9002 168.444 87.8516ZM170.752 83.2698C170.576 82.8631 170.315 82.4746 170.157 82.1529C170.407 80.411 170.577 79.1304 171.014 77.4372C171.403 77.1763 171.014 77.4372 171.858 76.8122C171.536 78.2142 171.086 80.2655 170.752 83.2698ZM169.496 81.1391C169.199 80.5807 168.713 79.9736 168.501 79.397C168.586 79.3788 169.934 78.2016 170.001 78.0985C169.794 79.2091 169.684 79.9435 169.496 81.1391ZM171.72 69.1102C171.599 68.9584 171.423 68.5518 171.302 68.4C171.448 66.5914 171.636 65.3957 171.825 64.2001C172.128 63.9574 172.432 63.7147 172.717 63.3871C172.006 66.2941 171.787 67.7628 171.72 69.1102ZM170.64 67.3862C170.361 66.9128 169.84 66.1358 169.84 66.1358C170.04 65.8263 170.714 65.2377 170.932 65.0132C170.841 65.8325 170.726 66.1238 170.64 67.3862ZM173.494 62.8653C173.476 62.7803 173.476 62.7803 173.458 62.6953C173.743 62.3676 174.132 62.1068 174.417 61.7791C173.444 69.2745 174.429 62.6652 173.201 71.4594C172.454 70.4638 172.715 70.8524 172.333 70.3121C172.765 65.6873 173.494 62.8653 173.494 62.8653ZM174.339 59.7519C174.339 59.7519 174.357 59.8369 174.339 59.7519C174.339 59.7519 174.357 59.8369 174.339 59.7519ZM173.249 73.7597C173.249 73.7597 173.267 73.8447 173.249 73.7597C173.182 73.8629 173.182 73.8629 173.249 73.7597C173.267 73.8447 173.249 73.7597 173.249 73.7597ZM175.135 54.3382C175.013 55.4307 174.886 56.0801 174.715 57.3607C174.072 56.4319 174.351 56.9054 173.848 56.2134C174.334 55.5762 174.752 55.0422 175.135 54.3382ZM163.727 67.8883C163.635 71.1961 162.887 78.91 161.532 84.621L161.035 84.372C161.934 79.0251 162.317 78.3212 163.138 68.4587C163.642 67.9065 163.442 68.216 163.727 67.8883ZM160.209 83.8377C160.617 79.9291 161.17 77.9446 161.894 69.7026C162.046 69.5812 162.264 69.3567 162.416 69.2354C161.509 79.1161 160.416 83.9713 160.416 83.9713C160.312 83.9045 160.209 83.8377 160.209 83.8377ZM158.886 83.0544C159.439 81.0699 160.37 72.9615 160.546 70.8797C160.698 70.7584 160.917 70.5338 161.068 70.4125C160.673 75.2072 159.505 83.4551 159.505 83.4551C159.299 83.3216 159.093 83.188 158.886 83.0544ZM151.641 77.8512C154.257 75.9582 156.637 74.2048 159.265 71.9537C158.943 74.5998 158.456 78.9696 157.77 82.4047C154.693 80.486 153.297 79.3629 151.641 77.8512ZM162.527 85.1189C163.749 79.6143 164.558 72.5983 164.687 66.9721C168.001 63.7743 170.223 61.6992 172.98 57.5545C173.24 57.943 174.041 59.1935 174.235 59.6851C173.258 60.5164 170.587 63.3987 170.016 64.054C167.867 66.4691 168.407 66.0869 169.457 68.0839C170.524 70.166 170.7 70.5727 171.38 71.6714C171.368 72.0295 171.422 72.2844 171.762 72.2117C171.902 72.4484 172.891 73.7475 172.945 74.0024C172.49 74.3665 169.691 76.6539 169.825 76.4476C165.764 79.894 166.875 78.8564 170.339 85.491C169.695 85.8065 168.074 86.9532 166.903 87.2928C163.935 85.884 163.814 85.7322 162.527 85.1189ZM186.717 73.9876C186.789 74.3275 186.929 74.5642 187.002 74.9041C186.406 77.5199 185.288 81.847 184.845 84.3414C184.796 84.5296 184.547 86.2714 184.51 86.1015C184.529 86.1864 184.444 86.2046 184.529 86.1864C184.498 86.4596 184.352 87.024 184.383 86.7509C184.079 88.2378 182.681 94.5799 182.487 95.3324L182.384 95.2657C182.718 94.7498 185.756 78.6365 186.717 73.9876ZM189.355 81.3321C188.201 85.4894 185.795 96.6685 185.703 97.4879C185.582 97.3361 185.394 97.2875 185.272 97.1357C185.43 96.2132 185.57 95.2057 185.728 94.2832C185.504 95.3089 188.742 80.1303 188.803 79.584C188.93 80.1789 189.143 80.7555 189.355 81.3321ZM184.138 96.4011C184.223 96.3829 188.118 78.0423 188.099 77.9573C188.118 78.0423 188.118 78.0422 188.136 78.1272L184.933 93.4758C184.946 93.1177 184.459 96.2433 184.362 96.6196C184.344 96.5346 184.241 96.4678 184.138 96.4011ZM183.191 95.715C185.828 83.9532 185.737 83.5284 185.737 83.5284C185.737 83.5284 185.737 83.5284 185.719 83.4434C185.737 83.5284 186.849 78.7581 187.444 76.1424C187.463 76.2274 187.481 76.3123 187.517 76.4823C184.218 92.2072 183.641 93.6637 183.416 95.9335C183.397 95.8486 183.294 95.7818 183.191 95.715ZM194.314 102.843C194.314 102.843 194.399 102.825 194.314 102.843C194.314 102.843 194.399 102.825 194.314 102.843ZM194.314 102.843C193.167 102.467 187.251 98.4897 186.425 97.9554C187.052 93.8223 189.621 83.4079 189.798 82.5704C190.901 86.0666 194.698 99.6508 194.314 102.843ZM186.201 72.4094C186.122 72.8707 185.915 73.9813 185.994 73.5201L181.71 94.61C180.127 93.4382 176.74 91.3192 174.889 90.5601C178.944 87.9148 178.738 87.7813 177.713 86.3122C176.184 84.1512 174.801 81.4257 174.655 80.7459C175.815 79.5202 179.894 77.4029 181.223 76.1408C182.686 74.6724 182.007 74.8179 179.289 70.423C179.009 69.9496 176.953 66.5684 176.825 65.9736C178.191 64.8815 181.675 64.1358 181.767 62.0722C182.465 63.2559 183.077 64.4578 183.605 65.6779C184.102 67.1711 186.402 70.8557 186.201 72.4094ZM181.064 9.79067C181.544 7.46622 182.588 4.04337 184.476 2.48401C186.977 0.882317 191.261 6.36399 186.579 18.1192C183.858 24.9222 182.601 26.5242 181.295 29.5586C181.219 21.3103 179.653 18.9793 181.064 9.79067ZM178.939 35.5727L178.921 35.4878C178.921 35.4878 178.921 35.4878 178.939 35.5727ZM177.872 31.0023C174.316 27.6754 167.162 19.1644 165.53 16.9365C164.347 15.1458 163.091 13.0151 162.825 10.9394C162.771 9.44022 163.293 8.97301 164.749 9.54995C171.528 12.9869 175.628 23.8399 177.872 31.0023Z" fill="#EFE2DA"/>
</svg>
